<svg width="38" height="50" viewBox="0 0 38 50" fill="none" xmlns="http://www.w3.org/2000/svg">
<path fill-rule="evenodd" clip-rule="evenodd" d="M32.8125 18.7474C32.8191 21.7606 31.8511 24.6951 30.0531 27.1131L18.75 42.1849L7.44688 27.1131C6.12346 25.3251 5.24309 23.2486 4.87809 21.0543C4.51309 18.8599 4.67388 16.6103 5.34723 14.4901C6.02059 12.37 7.18731 10.4398 8.75156 8.85823C10.3158 7.27661 12.2329 6.08865 14.3455 5.39192C16.4581 4.69519 18.7058 4.50957 20.9041 4.85032C23.1023 5.19106 25.1884 6.04844 26.9909 7.35203C28.7934 8.65562 30.2609 10.3682 31.2729 12.3492C32.285 14.3302 32.8126 16.5229 32.8125 18.7474ZM37.5 18.7474C37.5 22.9349 36.1281 26.7974 33.8125 29.9162L21.6781 46.0912L18.75 49.9974L15.8188 46.0912L3.6875 29.9162C1.92089 27.5331 0.744922 24.7649 0.256207 21.839C-0.232508 18.9131 -0.0200191 15.913 0.876217 13.0852C1.77245 10.2574 3.32686 7.68253 5.41171 5.57228C7.49657 3.46202 10.0524 1.87655 12.8691 0.946131C15.6859 0.0157152 18.6832 -0.233091 21.6148 0.220155C24.5464 0.6734 27.3287 1.81576 29.733 3.55338C32.1372 5.291 34.0949 7.57428 35.4451 10.2156C36.7953 12.857 37.4996 15.781 37.5 18.7474ZM18.75 24.9974C20.4076 24.9974 21.9973 24.339 23.1694 23.1669C24.3415 21.9947 25 20.405 25 18.7474C25 17.0898 24.3415 15.5001 23.1694 14.328C21.9973 13.1559 20.4076 12.4974 18.75 12.4974C17.0924 12.4974 15.5027 13.1559 14.3306 14.328C13.1585 15.5001 12.5 17.0898 12.5 18.7474C12.5 20.405 13.1585 21.9947 14.3306 23.1669C15.5027 24.339 17.0924 24.9974 18.75 24.9974Z" fill="white"/>
</svg>
