<svg width="43" height="43" viewBox="0 0 43 43" fill="none" xmlns="http://www.w3.org/2000/svg">
<path d="M4.48482 4.16667H13.839L16.8536 11.7042L12.0098 14.9333C11.7246 15.1236 11.4907 15.3814 11.329 15.6838C11.1673 15.9862 11.0827 16.3238 11.0827 16.6667C11.089 16.8625 11.0827 16.6688 11.0827 16.6688V16.7125C11.084 16.8057 11.0881 16.8988 11.0952 16.9917C11.1077 17.1625 11.1286 17.3938 11.1682 17.6792C11.2494 18.2417 11.4057 19.0167 11.7098 19.9292C12.3223 21.7625 13.5223 24.1354 15.8598 26.4729C18.1973 28.8104 20.5702 30.0104 22.4015 30.6229C23.3161 30.9271 24.089 31.0812 24.6557 31.1646C24.9755 31.2092 25.2975 31.2371 25.6202 31.2479L25.6473 31.25H25.664C25.664 31.25 25.8973 31.2375 25.6661 31.25C26.0529 31.2498 26.432 31.1419 26.7609 30.9384C27.0899 30.735 27.3557 30.4439 27.5286 30.0979L28.9244 27.3062L38.1661 28.8479V37.8479C33.7681 38.4833 21.889 39.1104 12.5557 29.7771C3.22232 20.4437 3.84732 8.5625 4.48482 4.16667ZM15.4015 17.6792L19.1661 15.1708C19.9614 14.6404 20.5501 13.8525 20.8334 12.9395C21.1168 12.0265 21.0775 11.0438 20.7223 10.1562L17.7077 2.61875C17.3984 1.84564 16.8645 1.18295 16.1749 0.716171C15.4853 0.249394 14.6717 -5.58197e-05 13.839 9.36921e-09H4.37649C2.48274 9.36921e-09 0.701488 1.31458 0.391072 3.36875C-0.317262 8.03958 -1.27768 21.8354 9.60982 32.7229C20.4973 43.6104 34.2931 42.6479 38.964 41.9417C41.0181 41.6292 42.3327 39.85 42.3327 37.9562V28.8479C42.3329 27.8616 41.9831 26.9072 41.3456 26.1545C40.7082 25.4019 39.8244 24.8997 38.8515 24.7375L29.6098 23.1979C28.7308 23.0512 27.828 23.1901 27.0338 23.5944C26.2396 23.9986 25.596 24.6468 25.1973 25.4438L24.4765 26.8875C24.2216 26.8247 23.9693 26.7518 23.7202 26.6687C22.4286 26.2396 20.6348 25.3562 18.8057 23.5271C16.9765 21.6979 16.0932 19.9042 15.664 18.6104C15.5615 18.3046 15.4746 17.9938 15.4036 17.6792H15.4015Z" fill="white"/>
</svg>
